<svg width="75" height="60" viewBox="0 0 75 60" fill="none" xmlns="http://www.w3.org/2000/svg">
<path d="M37.6601 18.87C37.5601 18.86 37.4401 18.86 37.3301 18.87C34.9501 18.79 33.0601 16.84 33.0601 14.44C33.0601 11.99 35.0401 10 37.5001 10C39.9501 10 41.9401 11.99 41.9401 14.44C41.9301 16.84 40.0401 18.79 37.6601 18.87Z" stroke="#929292" stroke-width="1.5" stroke-linecap="round" stroke-linejoin="round"/>
<path d="M32.6602 22.56C30.2402 24.18 30.2402 26.82 32.6602 28.43C35.4102 30.27 39.9202 30.27 42.6702 28.43C45.0902 26.81 45.0902 24.17 42.6702 22.56C39.9302 20.73 35.4202 20.73 32.6602 22.56Z" stroke="#929292" stroke-width="1.5" stroke-linecap="round" stroke-linejoin="round"/>
<path d="M7.80791 40.1797H8.81231L11.3743 46.5552L13.931 40.1797H14.9407L11.761 48H10.9769L7.80791 40.1797ZM7.48027 40.1797H8.3665L8.51152 44.9492V48H7.48027V40.1797ZM14.3768 40.1797H15.263V48H14.2317V44.9492L14.3768 40.1797ZM18.9662 47.3984L20.5829 42.1885H21.6464L19.3153 48.897C19.2616 49.0402 19.19 49.1942 19.1005 49.3589C19.0146 49.5272 18.9035 49.6865 18.7675 49.8369C18.6314 49.9873 18.4667 50.109 18.2733 50.2021C18.0836 50.2988 17.8562 50.3472 17.5912 50.3472C17.5124 50.3472 17.4122 50.3364 17.2904 50.3149C17.1687 50.2935 17.0827 50.2756 17.0326 50.2612L17.0272 49.4556C17.0559 49.4591 17.1007 49.4627 17.1615 49.4663C17.226 49.4735 17.2707 49.4771 17.2958 49.4771C17.5214 49.4771 17.713 49.4466 17.8705 49.3857C18.0281 49.3285 18.1605 49.23 18.268 49.0903C18.379 48.9543 18.4739 48.7663 18.5526 48.5264L18.9662 47.3984ZM17.7792 42.1885L19.2885 46.7002L19.5463 47.7476L18.8319 48.1128L16.6942 42.1885H17.7792ZM29.1173 40.8726L26.5284 48H25.4703L28.4513 40.1797H29.1334L29.1173 40.8726ZM31.2872 48L28.693 40.8726L28.6769 40.1797H29.359L32.3507 48H31.2872ZM31.1529 45.105V45.9536H26.7594V45.105H31.1529ZM35.9733 47.291C36.2097 47.291 36.4281 47.2427 36.6286 47.146C36.8291 47.0493 36.9938 46.9168 37.1228 46.7485C37.2517 46.5767 37.3251 46.3815 37.343 46.1631H38.2883C38.2704 46.5068 38.154 46.8273 37.9392 47.1245C37.7279 47.4181 37.4504 47.6562 37.1066 47.8389C36.7629 48.0179 36.3851 48.1074 35.9733 48.1074C35.5365 48.1074 35.1551 48.0304 34.8293 47.8765C34.507 47.7225 34.2385 47.5112 34.0236 47.2427C33.8124 46.9741 33.653 46.6662 33.5456 46.3188C33.4418 45.9679 33.3898 45.5973 33.3898 45.207V44.9814C33.3898 44.5911 33.4418 44.2223 33.5456 43.875C33.653 43.5241 33.8124 43.2144 34.0236 42.9458C34.2385 42.6772 34.507 42.466 34.8293 42.312C35.1551 42.158 35.5365 42.0811 35.9733 42.0811C36.4281 42.0811 36.8256 42.1742 37.1657 42.3604C37.5059 42.543 37.7727 42.7936 37.966 43.1123C38.163 43.4274 38.2704 43.7855 38.2883 44.1865H37.343C37.3251 43.9466 37.257 43.73 37.1389 43.5366C37.0243 43.3433 36.8667 43.1893 36.6662 43.0747C36.4693 42.9565 36.2383 42.8975 35.9733 42.8975C35.669 42.8975 35.413 42.9583 35.2053 43.0801C35.0012 43.1982 34.8382 43.3594 34.7165 43.5635C34.5983 43.764 34.5124 43.9878 34.4587 44.2349C34.4086 44.4784 34.3835 44.7272 34.3835 44.9814V45.207C34.3835 45.4613 34.4086 45.7119 34.4587 45.959C34.5088 46.2061 34.593 46.4299 34.7111 46.6304C34.8329 46.8309 34.9958 46.992 35.1999 47.1138C35.4076 47.2319 35.6654 47.291 35.9733 47.291ZM42.1312 47.291C42.3675 47.291 42.5859 47.2427 42.7864 47.146C42.9869 47.0493 43.1517 46.9168 43.2806 46.7485C43.4095 46.5767 43.4829 46.3815 43.5008 46.1631H44.4461C44.4282 46.5068 44.3118 46.8273 44.097 47.1245C43.8857 47.4181 43.6082 47.6562 43.2645 47.8389C42.9207 48.0179 42.5429 48.1074 42.1312 48.1074C41.6943 48.1074 41.313 48.0304 40.9871 47.8765C40.6648 47.7225 40.3963 47.5112 40.1814 47.2427C39.9702 46.9741 39.8108 46.6662 39.7034 46.3188C39.5996 45.9679 39.5477 45.5973 39.5477 45.207V44.9814C39.5477 44.5911 39.5996 44.2223 39.7034 43.875C39.8108 43.5241 39.9702 43.2144 40.1814 42.9458C40.3963 42.6772 40.6648 42.466 40.9871 42.312C41.313 42.158 41.6943 42.0811 42.1312 42.0811C42.5859 42.0811 42.9834 42.1742 43.3235 42.3604C43.6637 42.543 43.9305 42.7936 44.1238 43.1123C44.3208 43.4274 44.4282 43.7855 44.4461 44.1865H43.5008C43.4829 43.9466 43.4148 43.73 43.2967 43.5366C43.1821 43.3433 43.0245 43.1893 42.824 43.0747C42.6271 42.9565 42.3961 42.8975 42.1312 42.8975C41.8268 42.8975 41.5708 42.9583 41.3631 43.0801C41.159 43.1982 40.9961 43.3594 40.8743 43.5635C40.7562 43.764 40.6702 43.9878 40.6165 44.2349C40.5664 44.4784 40.5413 44.7272 40.5413 44.9814V45.207C40.5413 45.4613 40.5664 45.7119 40.6165 45.959C40.6666 46.2061 40.7508 46.4299 40.8689 46.6304C40.9907 46.8309 41.1536 46.992 41.3577 47.1138C41.5654 47.2319 41.8232 47.291 42.1312 47.291ZM45.7001 45.1587V45.0352C45.7001 44.6162 45.761 44.2277 45.8827 43.8696C46.0045 43.508 46.1799 43.1947 46.4091 42.9297C46.6383 42.6611 46.9158 42.4535 47.2416 42.3066C47.5675 42.1562 47.9327 42.0811 48.3373 42.0811C48.7455 42.0811 49.1125 42.1562 49.4384 42.3066C49.7678 42.4535 50.0471 42.6611 50.2763 42.9297C50.509 43.1947 50.6863 43.508 50.808 43.8696C50.9298 44.2277 50.9906 44.6162 50.9906 45.0352V45.1587C50.9906 45.5776 50.9298 45.9661 50.808 46.3242C50.6863 46.6823 50.509 46.9956 50.2763 47.2642C50.0471 47.5291 49.7696 47.7368 49.4438 47.8872C49.1215 48.034 48.7563 48.1074 48.348 48.1074C47.9398 48.1074 47.5728 48.034 47.247 47.8872C46.9211 47.7368 46.6418 47.5291 46.4091 47.2642C46.1799 46.9956 46.0045 46.6823 45.8827 46.3242C45.761 45.9661 45.7001 45.5776 45.7001 45.1587ZM46.6938 45.0352V45.1587C46.6938 45.4487 46.7278 45.7227 46.7958 45.9805C46.8638 46.2347 46.9659 46.4603 47.102 46.6572C47.2416 46.8542 47.4153 47.0099 47.623 47.1245C47.8306 47.2355 48.0723 47.291 48.348 47.291C48.6202 47.291 48.8583 47.2355 49.0624 47.1245C49.2701 47.0099 49.442 46.8542 49.578 46.6572C49.7141 46.4603 49.8161 46.2347 49.8842 45.9805C49.9558 45.7227 49.9916 45.4487 49.9916 45.1587V45.0352C49.9916 44.7487 49.9558 44.4784 49.8842 44.2241C49.8161 43.9663 49.7123 43.7389 49.5727 43.542C49.4366 43.3415 49.2647 43.1839 49.057 43.0693C48.8529 42.9548 48.613 42.8975 48.3373 42.8975C48.0652 42.8975 47.8253 42.9548 47.6176 43.0693C47.4135 43.1839 47.2416 43.3415 47.102 43.542C46.9659 43.7389 46.8638 43.9663 46.7958 44.2241C46.7278 44.4784 46.6938 44.7487 46.6938 45.0352ZM56.1924 46.6572V42.1885H57.1914V48H56.2407L56.1924 46.6572ZM56.3804 45.4326L56.7939 45.4219C56.7939 45.8086 56.7528 46.1667 56.6704 46.4961C56.5916 46.8219 56.4627 47.1048 56.2837 47.3447C56.1047 47.5846 55.8701 47.7726 55.5801 47.9087C55.29 48.0412 54.9373 48.1074 54.522 48.1074C54.2391 48.1074 53.9795 48.0662 53.7432 47.9839C53.5104 47.9015 53.3099 47.7744 53.1416 47.6025C52.9733 47.4307 52.8426 47.2069 52.7495 46.9312C52.66 46.6554 52.6152 46.3242 52.6152 45.9375V42.1885H53.6089V45.9482C53.6089 46.2096 53.6375 46.4263 53.6948 46.5981C53.7557 46.7664 53.8363 46.9007 53.9365 47.001C54.0404 47.0977 54.1549 47.1657 54.2803 47.2051C54.4092 47.2445 54.5417 47.2642 54.6777 47.2642C55.1003 47.2642 55.4351 47.1836 55.6821 47.0225C55.9292 46.8577 56.1064 46.6375 56.2139 46.3618C56.3249 46.0825 56.3804 45.7728 56.3804 45.4326ZM60.0997 43.4292V48H59.1061V42.1885H60.046L60.0997 43.4292ZM59.8634 44.874L59.4498 44.8579C59.4534 44.4604 59.5125 44.0934 59.6271 43.7568C59.7416 43.4167 59.9028 43.1213 60.1105 42.8706C60.3181 42.62 60.5652 42.4266 60.8517 42.2905C61.1417 42.1509 61.4622 42.0811 61.8131 42.0811C62.0995 42.0811 62.3574 42.1204 62.5865 42.1992C62.8157 42.2744 63.0108 42.3962 63.172 42.5645C63.3367 42.7327 63.462 42.9512 63.548 43.2197C63.6339 43.4847 63.6769 43.8088 63.6769 44.1919V48H62.6778V44.1812C62.6778 43.8768 62.6331 43.6333 62.5436 43.4507C62.454 43.2645 62.3233 43.1302 62.1515 43.0479C61.9796 42.9619 61.7683 42.9189 61.5177 42.9189C61.2706 42.9189 61.045 42.9709 60.8409 43.0747C60.6404 43.1785 60.4667 43.3218 60.3199 43.5044C60.1767 43.687 60.0639 43.8965 59.9815 44.1328C59.9028 44.3656 59.8634 44.6126 59.8634 44.874ZM68.0192 42.1885V42.9512H64.8771V42.1885H68.0192ZM65.9406 40.7759H66.9343V46.5605C66.9343 46.7575 66.9647 46.9061 67.0256 47.0063C67.0865 47.1066 67.1652 47.1729 67.2619 47.2051C67.3586 47.2373 67.4624 47.2534 67.5734 47.2534C67.6558 47.2534 67.7417 47.2463 67.8312 47.2319C67.9243 47.214 67.9942 47.1997 68.0407 47.189L68.0461 48C67.9673 48.0251 67.8635 48.0483 67.7346 48.0698C67.6092 48.0949 67.4571 48.1074 67.278 48.1074C67.0345 48.1074 66.8107 48.0591 66.6066 47.9624C66.4025 47.8657 66.2396 47.7046 66.1179 47.479C65.9997 47.2498 65.9406 46.9419 65.9406 46.5552V40.7759Z" fill="#929292"/>
</svg>
