<svg width="10" height="14" viewBox="0 0 10 14" fill="none" xmlns="http://www.w3.org/2000/svg">
<path d="M1.60668 13.7003C1.35154 13.7006 1.10157 13.6495 0.88609 13.553C0.670612 13.4565 0.498566 13.3186 0.390129 13.1555C0.281693 12.9924 0.241365 12.8108 0.273876 12.6321C0.306387 12.4534 0.410388 12.2849 0.57368 12.1465L6.58387 7.06813L0.788331 1.98031C0.676893 1.8834 0.593674 1.77189 0.543457 1.65219C0.49324 1.53249 0.477015 1.40696 0.495715 1.28282C0.514416 1.15867 0.567671 1.03836 0.652423 0.928803C0.737174 0.819242 0.851751 0.722591 0.989565 0.644405C1.12837 0.558152 1.29092 0.493093 1.46702 0.453311C1.64311 0.413528 1.82895 0.399881 2.01287 0.413225C2.19679 0.42657 2.37482 0.466619 2.53578 0.530858C2.69675 0.595097 2.83717 0.68214 2.94824 0.786523L9.42798 6.47124C9.6253 6.64077 9.73317 6.85342 9.73317 7.07287C9.73317 7.29232 9.6253 7.50497 9.42798 7.6745L2.72018 13.3592C2.58567 13.4739 2.41472 13.5646 2.22123 13.6239C2.02775 13.6831 1.81719 13.7093 1.60668 13.7003Z" fill="black"/>
</svg>
