<svg width="75" height="60" viewBox="0 0 75 60" fill="none" xmlns="http://www.w3.org/2000/svg">
<path d="M27.5 17.6536L36.5033 10.4509C37.2548 9.84969 38.3227 9.84969 39.0742 10.4509L48.0775 17.6536" stroke="#828282" stroke-width="1.5" stroke-linecap="round" stroke-linejoin="round"/>
<path d="M35.1937 11.531L31.0782 14.8748C30.3309 15.482 29.9573 15.7855 29.7576 16.2052C29.5579 16.6248 29.5579 17.1062 29.5579 18.069V21.7689C29.5579 25.649 29.5579 27.5892 30.7633 28.7945C31.9687 29.9999 33.9087 29.9999 37.7889 29.9999C41.669 29.9999 43.6091 29.9999 44.8144 28.7945C46.0199 27.5892 46.0199 25.649 46.0199 21.7689V18.069C46.0199 17.1062 46.0199 16.6248 45.8202 16.2052C45.6204 15.7855 45.2468 15.482 44.4996 14.8748L40.3841 11.531C39.141 10.521 38.5195 10.016 37.7889 10.016C37.0583 10.016 36.4367 10.521 35.1937 11.531Z" stroke="#828282" stroke-width="1.5"/>
<path d="M35.4736 24.084H40.1036" stroke="#828282" stroke-width="1.5" stroke-linecap="round"/>
<path d="M29.2461 48V39.5449H27.9336V43.1191H23.5918V39.5449H22.2793V48H23.5918V44.2559H27.9336V48H29.2461ZM33.3945 48.0762C35.2344 48.0762 36.4004 46.8223 36.4004 44.8184C36.4004 42.8145 35.2285 41.5547 33.3945 41.5547C31.5605 41.5547 30.3828 42.8203 30.3828 44.8184C30.3828 46.8223 31.5547 48.0762 33.3945 48.0762ZM33.3945 47.0215C32.3164 47.0215 31.6719 46.207 31.6719 44.8184C31.6719 43.4355 32.3164 42.6094 33.3945 42.6094C34.4727 42.6094 35.1113 43.4297 35.1113 44.8184C35.1113 46.207 34.4727 47.0215 33.3945 47.0215ZM37.4199 48H38.6914V44.0977C38.6914 43.2656 39.2539 42.6562 40.0391 42.6562C40.7832 42.6562 41.2578 43.125 41.2578 43.8633V48H42.5059V44.0508C42.5059 43.2363 43.0566 42.6562 43.8359 42.6562C44.627 42.6562 45.0781 43.1367 45.0781 43.9688V48H46.3438V43.6641C46.3438 42.3926 45.5234 41.5664 44.2695 41.5664C43.3613 41.5664 42.6113 42.0352 42.2773 42.8027H42.248C41.9902 42.0117 41.3516 41.5664 40.4668 41.5664C39.6348 41.5664 38.9492 42 38.6562 42.7148H38.6328V41.6367H37.4199V48ZM50.2637 42.5918C51.1895 42.5918 51.8164 43.248 51.8457 44.2383H48.6172C48.6875 43.2598 49.3496 42.5918 50.2637 42.5918ZM51.8398 46.1367C51.6641 46.6934 51.084 47.0449 50.3457 47.0449C49.3027 47.0449 48.6113 46.3184 48.6113 45.2168V45.1406H53.1172V44.6953C53.1172 42.7676 52.0156 41.5547 50.2695 41.5547C48.4883 41.5547 47.3281 42.8496 47.3281 44.8418C47.3281 46.834 48.4766 48.0762 50.3223 48.0762C51.752 48.0762 52.8711 47.2793 53.0527 46.1367H51.8398Z" fill="#828282"/>
</svg>
