<svg width="30" height="30" viewBox="0 0 30 30" fill="none" xmlns="http://www.w3.org/2000/svg">
<path d="M24.3249 12.4999C24.2016 12.6822 24.1286 12.8937 24.1132 13.1132C24.0979 13.3327 24.1407 13.5523 24.2374 13.7499C24.5477 14.474 24.766 15.2341 24.8874 16.0124C25.2092 18.0251 24.9083 20.0881 24.0249 21.9249C23.9177 22.1264 23.7573 22.2947 23.5611 22.4115C23.365 22.5283 23.1407 22.5891 22.9124 22.5874H7.09993C6.87039 22.5879 6.64516 22.5252 6.44892 22.4061C6.25268 22.2871 6.09301 22.1163 5.98743 21.9124C5.18728 20.2892 4.8426 18.4793 4.99016 16.6756C5.13771 14.872 5.77195 13.1421 6.82528 11.6706C7.8786 10.199 9.31152 9.04083 10.9713 8.31956C12.631 7.59829 14.4554 7.34094 16.2499 7.57494C17.1579 7.68166 18.046 7.91737 18.8874 8.27494C19.0851 8.37166 19.3047 8.4145 19.5242 8.39913C19.7437 8.38377 19.9552 8.31075 20.1374 8.18744C20.3273 8.06237 20.4794 7.88789 20.5775 7.68279C20.6755 7.47768 20.7158 7.24971 20.694 7.02342C20.6721 6.79713 20.5889 6.58109 20.4534 6.39854C20.3179 6.216 20.1352 6.07387 19.9249 5.98744C17.5102 4.95201 14.8305 4.7038 12.2667 5.27807C9.70283 5.85233 7.38511 7.21987 5.64275 9.18642C3.90039 11.153 2.82199 13.6186 2.56074 16.2329C2.29949 18.8473 2.86867 21.4775 4.18743 23.7499C4.40557 24.1278 4.71879 24.442 5.09597 24.6613C5.47314 24.8805 5.90114 24.9973 6.33743 24.9999H23.6499C24.0905 25.0017 24.5236 24.887 24.9056 24.6675C25.2875 24.448 25.6047 24.1315 25.8249 23.7499C26.7904 22.0767 27.3549 20.2025 27.4742 18.2745C27.5935 16.3464 27.2643 14.4169 26.5124 12.6374C26.4172 12.4346 26.2692 12.2612 26.084 12.1352C25.8987 12.0092 25.683 11.9353 25.4594 11.9212C25.2358 11.9072 25.0125 11.9535 24.8129 12.0553C24.6133 12.1571 24.4448 12.3107 24.3249 12.4999Z" fill="#003DA7"/>
<path d="M13.2375 15.7375C12.7684 16.2066 12.5049 16.8428 12.5049 17.5062C12.5049 17.8347 12.5696 18.16 12.6953 18.4635C12.821 18.7669 13.0052 19.0427 13.2375 19.275C13.4698 19.5073 13.7455 19.6915 14.049 19.8172C14.3525 19.9429 14.6778 20.0076 15.0063 20.0076C15.6697 20.0076 16.3059 19.7441 16.775 19.275L23.85 8.66248L13.2375 15.7375Z" fill="#003DA7"/>
</svg>
